<svg id="visual" viewBox="0 0 1950 1000" width="1950" height="1000" xmlns="http://www.w3.org/2000/svg" xmlns:xlink="http://www.w3.org/1999/xlink" version="1.1"><rect x="0" y="0" width="1950" height="1000" fill="#001220"></rect><path d="M0 639L46.5 636.5C93 634 186 629 278.8 621C371.7 613 464.3 602 557.2 622.7C650 643.3 743 695.7 835.8 712.3C928.7 729 1021.3 710 1114.2 695.5C1207 681 1300 671 1392.8 657.5C1485.7 644 1578.3 627 1671.2 634.2C1764 641.3 1857 672.7 1903.5 688.3L1950 704L1950 1001L1903.5 1001C1857 1001 1764 1001 1671.2 1001C1578.3 1001 1485.7 1001 1392.8 1001C1300 1001 1207 1001 1114.2 1001C1021.3 1001 928.7 1001 835.8 1001C743 1001 650 1001 557.2 1001C464.3 1001 371.7 1001 278.8 1001C186 1001 93 1001 46.5 1001L0 1001Z" fill="#6600ff"></path><path d="M0 740L46.5 747.3C93 754.7 186 769.3 278.8 763.3C371.7 757.3 464.3 730.7 557.2 715.8C650 701 743 698 835.8 713C928.7 728 1021.3 761 1114.2 775C1207 789 1300 784 1392.8 784.2C1485.7 784.3 1578.3 789.7 1671.2 787.7C1764 785.7 1857 776.3 1903.5 771.7L1950 767L1950 1001L1903.5 1001C1857 1001 1764 1001 1671.2 1001C1578.3 1001 1485.7 1001 1392.8 1001C1300 1001 1207 1001 1114.2 1001C1021.3 1001 928.7 1001 835.8 1001C743 1001 650 1001 557.2 1001C464.3 1001 371.7 1001 278.8 1001C186 1001 93 1001 46.5 1001L0 1001Z" fill="#192fbd"></path><path d="M0 832L46.5 836.3C93 840.7 186 849.3 278.8 847.3C371.7 845.3 464.3 832.7 557.2 817.7C650 802.7 743 785.3 835.8 791.7C928.7 798 1021.3 828 1114.2 843.2C1207 858.3 1300 858.7 1392.8 844.3C1485.7 830 1578.3 801 1671.2 800.3C1764 799.7 1857 827.3 1903.5 841.2L1950 855L1950 1001L1903.5 1001C1857 1001 1764 1001 1671.2 1001C1578.3 1001 1485.7 1001 1392.8 1001C1300 1001 1207 1001 1114.2 1001C1021.3 1001 928.7 1001 835.8 1001C743 1001 650 1001 557.2 1001C464.3 1001 371.7 1001 278.8 1001C186 1001 93 1001 46.5 1001L0 1001Z" fill="#002972"></path><path d="M0 862L46.5 872.8C93 883.7 186 905.3 278.8 904.2C371.7 903 464.3 879 557.2 870.8C650 862.7 743 870.3 835.8 869.5C928.7 868.7 1021.3 859.3 1114.2 864C1207 868.7 1300 887.3 1392.8 899.8C1485.7 912.3 1578.3 918.7 1671.2 911.2C1764 903.7 1857 882.3 1903.5 871.7L1950 861L1950 1001L1903.5 1001C1857 1001 1764 1001 1671.2 1001C1578.3 1001 1485.7 1001 1392.8 1001C1300 1001 1207 1001 1114.2 1001C1021.3 1001 928.7 1001 835.8 1001C743 1001 650 1001 557.2 1001C464.3 1001 371.7 1001 278.8 1001C186 1001 93 1001 46.5 1001L0 1001Z" fill="#001122"></path></svg>